<?xml version="1.0" standalone="no"?>
<!DOCTYPE svg PUBLIC "-//W3C//DTD SVG 20010904//EN"
 "http://www.w3.org/TR/2001/REC-SVG-20010904/DTD/svg10.dtd">
<svg version="1.0" xmlns="http://www.w3.org/2000/svg"
 width="148.000000pt" height="128.000000pt" viewBox="0 0 148.000000 128.000000"
 preserveAspectRatio="xMidYMid meet">

<g transform="translate(0.000000,128.000000) scale(0.100000,-0.100000)"
fill="#a3b3c2" stroke="none">

<path d="M0 1061 l0 -218 170 -98 c94 -54 170 -101 170 -105 0 -4 -77 -52
-170 -105 l-170 -98 0 -218 c0 -174 3 -219 13 -219 7 0 91 45 187 99 167 96
174 99 200 86 15 -8 94 -53 175 -100 81 -47 157 -85 169 -85 12 0 100 45 196
99 167 96 174 99 200 86 15 -8 94 -53 175 -100 81 -47 151 -85 156 -85 5 0 9
95 9 223 l-1 222 -162 92 c-89 50 -163 96 -165 101 -2 6 71 52 162 104 l165
93 1 223 c0 122 -4 222 -9 222 -5 0 -86 -45 -181 -100 l-173 -99 -36 19 c-20
10 -99 55 -176 99 -77 45 -149 81 -161 81 -12 0 -99 -45 -194 -100 l-173 -99
-36 19 c-20 10 -99 55 -176 99 -77 45 -145 81 -152 81 -10 0 -13 -48 -13 -219z
m726 -196 c-4 -11 -316 -195 -330 -195 -3 0 -6 89 -6 198 l1 197 167 95 167
96 3 -190 c1 -105 1 -195 -2 -201z m740 0 c-4 -11 -316 -195 -330 -195 -3 0
-6 89 -6 198 l1 197 167 95 167 96 3 -190 c1 -105 1 -195 -2 -201z m-1271 292
l160 -93 3 -201 2 -202 -169 97 -170 97 -1 198 c0 108 3 197 8 197 4 0 79 -42
167 -93z m740 0 l160 -93 3 -201 2 -202 -169 97 -170 97 -1 198 c0 108 3 197
8 197 4 0 79 -42 167 -93z m0 -426 c77 -45 140 -86 140 -91 0 -6 -74 -53 -164
-105 -140 -80 -167 -92 -185 -83 -82 42 -316 182 -316 188 0 5 75 51 167 104
157 90 168 94 192 81 14 -7 89 -50 166 -94z m-587 -517 c-7 -6 -84 -52 -171
-102 l-157 -90 0 201 1 202 167 95 167 96 3 -195 c2 -148 -1 -198 -10 -207z
m740 0 c-7 -6 -84 -52 -170 -102 l-158 -90 0 201 1 202 167 95 167 96 3 -195
c2 -148 -1 -198 -10 -207z m-523 303 l160 -92 3 -202 2 -202 -169 97 -170 97
-1 198 c0 108 3 197 8 197 4 0 79 -42 167 -93z m740 0 l160 -92 3 -202 2 -202
-169 97 -170 97 -1 198 c0 108 3 197 8 197 4 0 79 -42 167 -93z"/>
</g>
</svg>
